<svg xmlns="http://www.w3.org/2000/svg" xmlns:xlink="http://www.w3.org/1999/xlink" width="300" zoomAndPan="magnify" viewBox="0 0 224.87999 225" height="300" preserveAspectRatio="xMidYMid meet" version="1.0"><defs><clipPath id="4680aaa3ce"><path d="M 0 0.0585938 L 224.761719 0.0585938 L 224.761719 224.9375 L 0 224.9375 Z M 0 0.0585938 " clip-rule="nonzero"/></clipPath></defs><g clip-path="url(#4680aaa3ce)"><path fill="#ffb7a1" d="M 112.78125 0.0585938 L 224.878906 0.0585938 L 224.878906 112.15625 C 224.878906 114.003906 224.835938 115.847656 224.742188 117.691406 C 224.652344 119.535156 224.519531 121.375 224.335938 123.210938 C 224.15625 125.050781 223.929688 126.878906 223.660156 128.707031 C 223.386719 130.53125 223.074219 132.351562 222.710938 134.160156 C 222.351562 135.972656 221.949219 137.769531 221.5 139.5625 C 221.050781 141.351562 220.558594 143.128906 220.023438 144.898438 C 219.488281 146.664062 218.910156 148.414062 218.289062 150.152344 C 217.664062 151.890625 217 153.613281 216.296875 155.316406 C 215.589844 157.023438 214.839844 158.710938 214.050781 160.378906 C 213.261719 162.046875 212.433594 163.695312 211.5625 165.324219 C 210.691406 166.949219 209.785156 168.554688 208.835938 170.140625 C 207.886719 171.722656 206.898438 173.28125 205.871094 174.816406 C 204.847656 176.351562 203.785156 177.859375 202.683594 179.34375 C 201.585938 180.824219 200.449219 182.28125 199.28125 183.707031 C 198.109375 185.132812 196.902344 186.53125 195.664062 187.898438 C 194.425781 189.265625 193.152344 190.601562 191.847656 191.90625 C 190.542969 193.210938 189.207031 194.484375 187.835938 195.722656 C 186.46875 196.964844 185.074219 198.167969 183.644531 199.339844 C 182.21875 200.511719 180.765625 201.644531 179.28125 202.746094 C 177.800781 203.84375 176.289062 204.90625 174.757812 205.933594 C 173.222656 206.957031 171.664062 207.945312 170.078125 208.894531 C 168.496094 209.84375 166.890625 210.753906 165.261719 211.621094 C 163.636719 212.492188 161.988281 213.324219 160.320312 214.113281 C 158.648438 214.902344 156.964844 215.648438 155.257812 216.355469 C 153.550781 217.0625 151.832031 217.726562 150.09375 218.347656 C 148.355469 218.96875 146.601562 219.546875 144.835938 220.082031 C 143.070312 220.621094 141.292969 221.113281 139.5 221.558594 C 137.710938 222.007812 135.910156 222.414062 134.101562 222.773438 C 132.289062 223.132812 130.472656 223.449219 128.648438 223.71875 C 126.820312 223.988281 124.988281 224.214844 123.152344 224.398438 C 121.316406 224.578125 119.476562 224.714844 117.632812 224.804688 C 115.789062 224.894531 113.945312 224.941406 112.097656 224.941406 L 0 224.941406 L 0 112.84375 C 0 110.996094 0.046875 109.152344 0.136719 107.308594 C 0.226562 105.464844 0.363281 103.625 0.542969 101.789062 C 0.722656 99.949219 0.949219 98.121094 1.21875 96.292969 C 1.492188 94.46875 1.808594 92.648438 2.167969 90.839844 C 2.527344 89.027344 2.929688 87.230469 3.378906 85.4375 C 3.828125 83.648438 4.320312 81.871094 4.855469 80.101562 C 5.390625 78.335938 5.972656 76.585938 6.59375 74.847656 C 7.214844 73.109375 7.878906 71.386719 8.585938 69.683594 C 9.292969 67.976562 10.039062 66.289062 10.828125 64.621094 C 11.617188 62.953125 12.445312 61.304688 13.316406 59.675781 C 14.1875 58.050781 15.097656 56.445312 16.046875 54.859375 C 16.996094 53.277344 17.980469 51.71875 19.007812 50.183594 C 20.03125 48.648438 21.09375 47.140625 22.195312 45.65625 C 23.292969 44.175781 24.429688 42.71875 25.601562 41.292969 C 26.769531 39.867188 27.976562 38.46875 29.214844 37.101562 C 30.457031 35.734375 31.726562 34.398438 33.03125 33.09375 C 34.339844 31.789062 35.675781 30.515625 37.042969 29.277344 C 38.410156 28.035156 39.808594 26.832031 41.234375 25.660156 C 42.660156 24.488281 44.117188 23.355469 45.597656 22.253906 C 47.082031 21.15625 48.589844 20.09375 50.125 19.066406 C 51.660156 18.042969 53.21875 17.054688 54.800781 16.105469 C 56.382812 15.15625 57.988281 14.246094 59.617188 13.378906 C 61.246094 12.507812 62.894531 11.675781 64.5625 10.886719 C 66.230469 10.097656 67.917969 9.351562 69.621094 8.644531 C 71.328125 7.9375 73.050781 7.273438 74.785156 6.652344 C 76.523438 6.03125 78.277344 5.453125 80.042969 4.917969 C 81.808594 4.378906 83.585938 3.886719 85.378906 3.441406 C 87.167969 2.992188 88.96875 2.585938 90.777344 2.226562 C 92.589844 1.867188 94.40625 1.550781 96.234375 1.28125 C 98.058594 1.011719 99.890625 0.785156 101.726562 0.601562 C 103.5625 0.421875 105.40625 0.285156 107.246094 0.195312 C 109.089844 0.105469 110.9375 0.0585938 112.78125 0.0585938 Z M 112.78125 0.0585938 " fill-opacity="1" fill-rule="nonzero"/><path fill="#ffb7a1" d="M 112.78125 0.0585938 L 224.878906 0.0585938 L 224.878906 112.15625 C 224.878906 114.003906 224.835938 115.847656 224.742188 117.691406 C 224.652344 119.535156 224.519531 121.375 224.335938 123.210938 C 224.15625 125.050781 223.929688 126.878906 223.660156 128.707031 C 223.386719 130.53125 223.074219 132.351562 222.710938 134.160156 C 222.351562 135.972656 221.949219 137.769531 221.5 139.5625 C 221.050781 141.351562 220.558594 143.128906 220.023438 144.898438 C 219.488281 146.664062 218.910156 148.414062 218.289062 150.152344 C 217.664062 151.890625 217 153.613281 216.296875 155.316406 C 215.589844 157.023438 214.839844 158.710938 214.050781 160.378906 C 213.261719 162.046875 212.433594 163.695312 211.5625 165.324219 C 210.691406 166.949219 209.785156 168.554688 208.835938 170.140625 C 207.886719 171.722656 206.898438 173.28125 205.871094 174.816406 C 204.847656 176.351562 203.785156 177.859375 202.683594 179.34375 C 201.585938 180.824219 200.449219 182.28125 199.28125 183.707031 C 198.109375 185.132812 196.902344 186.53125 195.664062 187.898438 C 194.425781 189.265625 193.152344 190.601562 191.847656 191.90625 C 190.542969 193.210938 189.207031 194.484375 187.835938 195.722656 C 186.46875 196.964844 185.074219 198.167969 183.644531 199.339844 C 182.21875 200.511719 180.765625 201.644531 179.28125 202.746094 C 177.800781 203.84375 176.289062 204.90625 174.757812 205.933594 C 173.222656 206.957031 171.664062 207.945312 170.078125 208.894531 C 168.496094 209.84375 166.890625 210.753906 165.261719 211.621094 C 163.636719 212.492188 161.988281 213.324219 160.320312 214.113281 C 158.648438 214.902344 156.964844 215.648438 155.257812 216.355469 C 153.550781 217.0625 151.832031 217.726562 150.09375 218.347656 C 148.355469 218.96875 146.601562 219.546875 144.835938 220.082031 C 143.070312 220.621094 141.292969 221.113281 139.5 221.558594 C 137.710938 222.007812 135.910156 222.414062 134.101562 222.773438 C 132.289062 223.132812 130.472656 223.449219 128.648438 223.71875 C 126.820312 223.988281 124.988281 224.214844 123.152344 224.398438 C 121.316406 224.578125 119.476562 224.714844 117.632812 224.804688 C 115.789062 224.894531 113.945312 224.941406 112.097656 224.941406 L 0 224.941406 L 0 112.84375 C 0 110.996094 0.046875 109.152344 0.136719 107.308594 C 0.226562 105.464844 0.363281 103.625 0.542969 101.789062 C 0.722656 99.949219 0.949219 98.121094 1.21875 96.292969 C 1.492188 94.46875 1.808594 92.648438 2.167969 90.839844 C 2.527344 89.027344 2.929688 87.230469 3.378906 85.4375 C 3.828125 83.648438 4.320312 81.871094 4.855469 80.101562 C 5.390625 78.335938 5.972656 76.585938 6.59375 74.847656 C 7.214844 73.109375 7.878906 71.386719 8.585938 69.683594 C 9.292969 67.976562 10.039062 66.289062 10.828125 64.621094 C 11.617188 62.953125 12.445312 61.304688 13.316406 59.675781 C 14.1875 58.050781 15.097656 56.445312 16.046875 54.859375 C 16.996094 53.277344 17.980469 51.71875 19.007812 50.183594 C 20.03125 48.648438 21.09375 47.140625 22.195312 45.65625 C 23.292969 44.175781 24.429688 42.71875 25.601562 41.292969 C 26.769531 39.867188 27.976562 38.46875 29.214844 37.101562 C 30.457031 35.734375 31.726562 34.398438 33.03125 33.09375 C 34.339844 31.789062 35.675781 30.515625 37.042969 29.277344 C 38.410156 28.035156 39.808594 26.832031 41.234375 25.660156 C 42.660156 24.488281 44.117188 23.355469 45.597656 22.253906 C 47.082031 21.15625 48.589844 20.09375 50.125 19.066406 C 51.660156 18.042969 53.21875 17.054688 54.800781 16.105469 C 56.382812 15.15625 57.988281 14.246094 59.617188 13.378906 C 61.246094 12.507812 62.894531 11.675781 64.5625 10.886719 C 66.230469 10.097656 67.917969 9.351562 69.621094 8.644531 C 71.328125 7.9375 73.050781 7.273438 74.785156 6.652344 C 76.523438 6.03125 78.277344 5.453125 80.042969 4.917969 C 81.808594 4.378906 83.585938 3.886719 85.378906 3.441406 C 87.167969 2.992188 88.96875 2.585938 90.777344 2.226562 C 92.589844 1.867188 94.40625 1.550781 96.234375 1.28125 C 98.058594 1.011719 99.890625 0.785156 101.726562 0.601562 C 103.5625 0.421875 105.40625 0.285156 107.246094 0.195312 C 109.089844 0.105469 110.9375 0.0585938 112.78125 0.0585938 Z M 112.78125 0.0585938 " fill-opacity="1" fill-rule="nonzero"/></g></svg>