<svg xmlns="http://www.w3.org/2000/svg" xmlns:xlink="http://www.w3.org/1999/xlink" width="300" zoomAndPan="magnify" viewBox="0 0 224.87999 225" height="300" preserveAspectRatio="xMidYMid meet" version="1.0"><defs><clipPath id="b1c3d59d98"><path d="M 0 0.0585938 L 224.761719 0.0585938 L 224.761719 224.9375 L 0 224.9375 Z M 0 0.0585938 " clip-rule="nonzero"/></clipPath></defs><g clip-path="url(#b1c3d59d98)"><path fill="#e7f4f9" d="M 114.039062 224.941406 L 110.796875 224.941406 C 49.617188 224.941406 0 175.320312 0 114.097656 L 0 110.855469 C 0 49.679688 49.617188 0.0585938 110.839844 0.0585938 L 224.332031 0.0585938 C 224.652344 0.0585938 224.878906 0.335938 224.878906 0.609375 L 224.878906 114.097656 C 224.878906 175.320312 175.261719 224.941406 114.039062 224.941406 Z M 114.039062 224.941406 " fill-opacity="1" fill-rule="nonzero"/><path fill="#e7f4f9" d="M 114.039062 224.941406 L 110.796875 224.941406 C 49.617188 224.941406 0 175.320312 0 114.097656 L 0 110.855469 C 0 49.679688 49.617188 0.0585938 110.839844 0.0585938 L 224.332031 0.0585938 C 224.652344 0.0585938 224.878906 0.335938 224.878906 0.609375 L 224.878906 114.097656 C 224.878906 175.320312 175.261719 224.941406 114.039062 224.941406 Z M 114.039062 224.941406 " fill-opacity="1" fill-rule="nonzero"/></g></svg>