<svg xmlns="http://www.w3.org/2000/svg" xmlns:xlink="http://www.w3.org/1999/xlink" width="305" zoomAndPan="magnify" viewBox="0 0 228.75 225" height="300" preserveAspectRatio="xMidYMid meet" version="1.0"><defs><clipPath id="04483f1ecb"><path d="M 0 0.121094 L 142 0.121094 L 142 142 L 0 142 Z M 0 0.121094 " clip-rule="nonzero"/></clipPath><clipPath id="d23902a243"><path d="M 135 76 L 227.75 76 L 227.75 170 L 135 170 Z M 135 76 " clip-rule="nonzero"/></clipPath><clipPath id="1415de075d"><path d="M 0 0.121094 L 142 0.121094 L 142 142 L 0 142 Z M 0 0.121094 " clip-rule="nonzero"/></clipPath><clipPath id="109fc3acf6"><path d="M 135 76 L 227.75 76 L 227.75 170 L 135 170 Z M 135 76 " clip-rule="nonzero"/></clipPath></defs><g clip-path="url(#04483f1ecb)"><path fill="#cfebe1" d="M 141.230469 70.75 C 141.230469 71.90625 141.203125 73.0625 141.144531 74.214844 C 141.089844 75.371094 141.003906 76.523438 140.890625 77.671875 C 140.777344 78.820312 140.636719 79.96875 140.464844 81.113281 C 140.296875 82.253906 140.097656 83.394531 139.875 84.527344 C 139.648438 85.660156 139.394531 86.789062 139.113281 87.910156 C 138.832031 89.03125 138.527344 90.144531 138.191406 91.25 C 137.855469 92.355469 137.492188 93.453125 137.105469 94.542969 C 136.714844 95.628906 136.300781 96.707031 135.855469 97.773438 C 135.414062 98.84375 134.945312 99.898438 134.453125 100.945312 C 133.960938 101.988281 133.441406 103.019531 132.894531 104.039062 C 132.351562 105.058594 131.78125 106.066406 131.1875 107.054688 C 130.59375 108.046875 129.976562 109.023438 129.335938 109.984375 C 128.691406 110.945312 128.027344 111.890625 127.339844 112.816406 C 126.652344 113.746094 125.941406 114.65625 125.207031 115.550781 C 124.476562 116.445312 123.722656 117.320312 122.945312 118.175781 C 122.171875 119.03125 121.375 119.867188 120.558594 120.6875 C 119.742188 121.503906 118.902344 122.300781 118.046875 123.074219 C 117.191406 123.851562 116.316406 124.605469 115.425781 125.339844 C 114.53125 126.074219 113.621094 126.785156 112.695312 127.472656 C 111.765625 128.160156 110.820312 128.828125 109.863281 129.46875 C 108.902344 130.109375 107.925781 130.730469 106.933594 131.324219 C 105.945312 131.917969 104.941406 132.488281 103.921875 133.03125 C 102.902344 133.574219 101.871094 134.09375 100.828125 134.589844 C 99.78125 135.082031 98.726562 135.550781 97.660156 135.996094 C 96.59375 136.4375 95.515625 136.851562 94.425781 137.242188 C 93.339844 137.632812 92.242188 137.992188 91.136719 138.328125 C 90.03125 138.664062 88.917969 138.972656 87.800781 139.253906 C 86.679688 139.535156 85.550781 139.789062 84.417969 140.011719 C 83.285156 140.238281 82.148438 140.4375 81.007812 140.605469 C 79.863281 140.773438 78.71875 140.917969 77.566406 141.03125 C 76.417969 141.144531 75.265625 141.226562 74.113281 141.285156 C 72.960938 141.339844 71.804688 141.371094 70.648438 141.371094 C 69.496094 141.371094 68.339844 141.339844 67.1875 141.285156 C 66.03125 141.226562 64.882812 141.144531 63.730469 141.03125 C 62.582031 140.917969 61.4375 140.773438 60.292969 140.605469 C 59.152344 140.4375 58.011719 140.238281 56.878906 140.011719 C 55.746094 139.789062 54.621094 139.535156 53.5 139.253906 C 52.378906 138.972656 51.265625 138.664062 50.160156 138.328125 C 49.054688 137.992188 47.960938 137.632812 46.871094 137.242188 C 45.785156 136.851562 44.707031 136.4375 43.640625 135.996094 C 42.574219 135.550781 41.515625 135.082031 40.472656 134.589844 C 39.429688 134.09375 38.398438 133.574219 37.378906 133.03125 C 36.359375 132.488281 35.355469 131.917969 34.363281 131.324219 C 33.375 130.730469 32.398438 130.109375 31.4375 129.46875 C 30.476562 128.828125 29.53125 128.160156 28.605469 127.472656 C 27.675781 126.785156 26.765625 126.074219 25.875 125.339844 C 24.980469 124.605469 24.105469 123.851562 23.25 123.074219 C 22.394531 122.300781 21.558594 121.503906 20.742188 120.6875 C 19.925781 119.867188 19.128906 119.03125 18.351562 118.175781 C 17.578125 117.320312 16.824219 116.445312 16.089844 115.550781 C 15.359375 114.65625 14.648438 113.746094 13.960938 112.816406 C 13.269531 111.890625 12.605469 110.945312 11.964844 109.984375 C 11.324219 109.023438 10.703125 108.046875 10.109375 107.054688 C 9.515625 106.066406 8.949219 105.058594 8.402344 104.039062 C 7.859375 103.019531 7.339844 101.988281 6.847656 100.945312 C 6.351562 99.898438 5.882812 98.84375 5.441406 97.773438 C 5 96.707031 4.585938 95.628906 4.195312 94.542969 C 3.804688 93.453125 3.445312 92.355469 3.109375 91.25 C 2.773438 90.144531 2.464844 89.03125 2.183594 87.910156 C 1.902344 86.789062 1.652344 85.660156 1.425781 84.527344 C 1.199219 83.394531 1.003906 82.253906 0.832031 81.113281 C 0.664062 79.96875 0.523438 78.820312 0.410156 77.671875 C 0.296875 76.523438 0.210938 75.371094 0.15625 74.214844 C 0.0976562 73.0625 0.0703125 71.90625 0.0703125 70.75 C 0.0703125 69.59375 0.0976562 68.4375 0.15625 67.285156 C 0.210938 66.128906 0.296875 64.976562 0.410156 63.828125 C 0.523438 62.679688 0.664062 61.53125 0.832031 60.386719 C 1.003906 59.246094 1.199219 58.105469 1.425781 56.972656 C 1.652344 55.839844 1.902344 54.710938 2.183594 53.589844 C 2.464844 52.46875 2.773438 51.355469 3.109375 50.25 C 3.445312 49.144531 3.804688 48.046875 4.195312 46.957031 C 4.585938 45.871094 5 44.792969 5.441406 43.726562 C 5.882812 42.65625 6.351562 41.601562 6.847656 40.554688 C 7.339844 39.511719 7.859375 38.480469 8.402344 37.460938 C 8.949219 36.441406 9.515625 35.433594 10.109375 34.445312 C 10.703125 33.453125 11.324219 32.476562 11.964844 31.515625 C 12.605469 30.554688 13.269531 29.609375 13.960938 28.683594 C 14.648438 27.753906 15.359375 26.84375 16.089844 25.949219 C 16.824219 25.054688 17.578125 24.179688 18.351562 23.324219 C 19.128906 22.46875 19.925781 21.632812 20.742188 20.8125 C 21.558594 19.996094 22.394531 19.199219 23.25 18.425781 C 24.105469 17.648438 24.980469 16.894531 25.875 16.160156 C 26.765625 15.425781 27.675781 14.714844 28.605469 14.027344 C 29.53125 13.339844 30.476562 12.671875 31.4375 12.03125 C 32.398438 11.390625 33.375 10.769531 34.363281 10.175781 C 35.355469 9.582031 36.359375 9.011719 37.378906 8.46875 C 38.398438 7.925781 39.429688 7.40625 40.472656 6.910156 C 41.515625 6.417969 42.574219 5.949219 43.640625 5.503906 C 44.707031 5.0625 45.785156 4.648438 46.871094 4.257812 C 47.960938 3.867188 49.054688 3.507812 50.160156 3.171875 C 51.265625 2.835938 52.378906 2.527344 53.5 2.246094 C 54.621094 1.964844 55.746094 1.710938 56.878906 1.488281 C 58.011719 1.261719 59.152344 1.0625 60.292969 0.894531 C 61.4375 0.726562 62.582031 0.582031 63.730469 0.46875 C 64.882812 0.355469 66.03125 0.273438 67.1875 0.214844 C 68.339844 0.160156 69.496094 0.128906 70.648438 0.128906 C 71.804688 0.128906 72.960938 0.160156 74.113281 0.214844 C 75.265625 0.273438 76.417969 0.355469 77.566406 0.46875 C 78.71875 0.582031 79.863281 0.726562 81.007812 0.894531 C 82.148438 1.0625 83.285156 1.261719 84.417969 1.488281 C 85.550781 1.710938 86.679688 1.964844 87.800781 2.246094 C 88.917969 2.527344 90.03125 2.835938 91.136719 3.171875 C 92.242188 3.507812 93.339844 3.867188 94.425781 4.257812 C 95.515625 4.648438 96.59375 5.0625 97.660156 5.503906 C 98.726562 5.949219 99.78125 6.417969 100.828125 6.910156 C 101.871094 7.40625 102.902344 7.925781 103.921875 8.46875 C 104.941406 9.011719 105.945312 9.582031 106.933594 10.175781 C 107.925781 10.769531 108.902344 11.390625 109.863281 12.03125 C 110.820312 12.671875 111.765625 13.339844 112.695312 14.027344 C 113.621094 14.714844 114.53125 15.425781 115.425781 16.160156 C 116.316406 16.894531 117.191406 17.648438 118.046875 18.425781 C 118.902344 19.199219 119.742188 19.996094 120.558594 20.8125 C 121.375 21.632812 122.171875 22.46875 122.945312 23.324219 C 123.722656 24.179688 124.476562 25.054688 125.207031 25.949219 C 125.941406 26.84375 126.652344 27.753906 127.339844 28.683594 C 128.027344 29.609375 128.691406 30.554688 129.335938 31.515625 C 129.976562 32.476562 130.59375 33.453125 131.1875 34.445312 C 131.78125 35.433594 132.351562 36.441406 132.894531 37.460938 C 133.441406 38.480469 133.960938 39.511719 134.453125 40.554688 C 134.945312 41.601562 135.414062 42.65625 135.855469 43.726562 C 136.300781 44.792969 136.714844 45.871094 137.105469 46.957031 C 137.492188 48.046875 137.855469 49.144531 138.191406 50.25 C 138.527344 51.355469 138.832031 52.46875 139.113281 53.589844 C 139.394531 54.710938 139.648438 55.839844 139.875 56.972656 C 140.097656 58.105469 140.296875 59.246094 140.464844 60.386719 C 140.636719 61.53125 140.777344 62.679688 140.890625 63.828125 C 141.003906 64.976562 141.089844 66.128906 141.144531 67.285156 C 141.203125 68.4375 141.230469 69.59375 141.230469 70.75 Z M 141.230469 70.75 " fill-opacity="0.65" fill-rule="nonzero"/></g><path fill="#b5dbe0" d="M 157.304688 116.445312 C 157.304688 117.75 157.242188 119.046875 157.113281 120.34375 C 156.988281 121.640625 156.796875 122.925781 156.542969 124.203125 C 156.289062 125.480469 155.972656 126.742188 155.59375 127.988281 C 155.214844 129.234375 154.777344 130.460938 154.28125 131.664062 C 153.78125 132.867188 153.226562 134.042969 152.613281 135.191406 C 152 136.339844 151.332031 137.453125 150.609375 138.535156 C 149.886719 139.621094 149.109375 140.664062 148.285156 141.671875 C 147.460938 142.675781 146.585938 143.640625 145.667969 144.5625 C 144.746094 145.484375 143.78125 146.355469 142.777344 147.183594 C 141.769531 148.007812 140.726562 148.785156 139.644531 149.507812 C 138.5625 150.230469 137.445312 150.898438 136.300781 151.511719 C 135.152344 152.125 133.976562 152.683594 132.773438 153.179688 C 131.570312 153.679688 130.347656 154.117188 129.101562 154.496094 C 127.855469 154.875 126.59375 155.191406 125.320312 155.445312 C 124.042969 155.699219 122.757812 155.890625 121.460938 156.015625 C 120.167969 156.144531 118.867188 156.207031 117.566406 156.207031 C 116.265625 156.207031 114.964844 156.144531 113.671875 156.015625 C 112.375 155.890625 111.089844 155.699219 109.8125 155.445312 C 108.535156 155.191406 107.277344 154.875 106.03125 154.496094 C 104.785156 154.117188 103.5625 153.679688 102.359375 153.179688 C 101.15625 152.683594 99.980469 152.125 98.832031 151.511719 C 97.683594 150.898438 96.570312 150.230469 95.488281 149.507812 C 94.40625 148.785156 93.363281 148.007812 92.355469 147.183594 C 91.351562 146.355469 90.386719 145.484375 89.464844 144.5625 C 88.546875 143.640625 87.671875 142.675781 86.847656 141.671875 C 86.023438 140.664062 85.246094 139.621094 84.523438 138.535156 C 83.800781 137.453125 83.132812 136.339844 82.519531 135.191406 C 81.90625 134.042969 81.351562 132.867188 80.851562 131.664062 C 80.355469 130.460938 79.914062 129.234375 79.539062 127.988281 C 79.160156 126.742188 78.84375 125.480469 78.589844 124.203125 C 78.335938 122.925781 78.144531 121.640625 78.019531 120.34375 C 77.890625 119.046875 77.828125 117.75 77.828125 116.445312 C 77.828125 115.144531 77.890625 113.84375 78.019531 112.546875 C 78.144531 111.253906 78.335938 109.964844 78.589844 108.6875 C 78.84375 107.410156 79.160156 106.148438 79.539062 104.902344 C 79.914062 103.65625 80.355469 102.433594 80.851562 101.230469 C 81.351562 100.027344 81.90625 98.851562 82.519531 97.703125 C 83.132812 96.554688 83.800781 95.4375 84.523438 94.355469 C 85.246094 93.273438 86.023438 92.226562 86.847656 91.222656 C 87.671875 90.214844 88.546875 89.25 89.464844 88.328125 C 90.386719 87.410156 91.351562 86.535156 92.355469 85.710938 C 93.363281 84.882812 94.40625 84.109375 95.488281 83.386719 C 96.570312 82.660156 97.683594 81.992188 98.832031 81.378906 C 99.980469 80.765625 101.15625 80.210938 102.359375 79.710938 C 103.5625 79.210938 104.785156 78.773438 106.03125 78.394531 C 107.277344 78.019531 108.535156 77.703125 109.8125 77.449219 C 111.089844 77.195312 112.375 77.003906 113.671875 76.875 C 114.964844 76.746094 116.265625 76.683594 117.566406 76.683594 C 118.867188 76.683594 120.167969 76.746094 121.460938 76.875 C 122.757812 77.003906 124.042969 77.195312 125.320312 77.449219 C 126.59375 77.703125 127.855469 78.019531 129.101562 78.394531 C 130.347656 78.773438 131.570312 79.210938 132.773438 79.710938 C 133.976562 80.210938 135.152344 80.765625 136.300781 81.378906 C 137.445312 81.992188 138.5625 82.660156 139.644531 83.386719 C 140.726562 84.109375 141.769531 84.882812 142.777344 85.710938 C 143.78125 86.535156 144.746094 87.410156 145.667969 88.328125 C 146.585938 89.25 147.460938 90.214844 148.285156 91.222656 C 149.109375 92.226562 149.886719 93.273438 150.609375 94.355469 C 151.332031 95.4375 152 96.554688 152.613281 97.703125 C 153.226562 98.851562 153.78125 100.027344 154.28125 101.230469 C 154.777344 102.433594 155.214844 103.65625 155.59375 104.902344 C 155.972656 106.148438 156.289062 107.410156 156.542969 108.6875 C 156.796875 109.964844 156.988281 111.253906 157.113281 112.546875 C 157.242188 113.84375 157.304688 115.144531 157.304688 116.445312 Z M 157.304688 116.445312 " fill-opacity="0.65" fill-rule="nonzero"/><g clip-path="url(#d23902a243)"><path fill="#97d3c0" d="M 227.699219 122.910156 C 227.699219 124.425781 227.625 125.933594 227.476562 127.441406 C 227.328125 128.949219 227.105469 130.445312 226.8125 131.929688 C 226.515625 133.414062 226.148438 134.878906 225.710938 136.328125 C 225.269531 137.777344 224.761719 139.203125 224.183594 140.601562 C 223.601562 142 222.957031 143.367188 222.242188 144.699219 C 221.53125 146.035156 220.753906 147.332031 219.914062 148.59375 C 219.070312 149.851562 218.171875 151.066406 217.210938 152.234375 C 216.253906 153.40625 215.238281 154.527344 214.167969 155.597656 C 213.097656 156.667969 211.976562 157.683594 210.808594 158.644531 C 209.636719 159.601562 208.425781 160.503906 207.167969 161.34375 C 205.910156 162.1875 204.613281 162.964844 203.277344 163.675781 C 201.945312 164.390625 200.578125 165.039062 199.179688 165.617188 C 197.78125 166.195312 196.359375 166.707031 194.910156 167.144531 C 193.464844 167.585938 191.996094 167.953125 190.511719 168.246094 C 189.03125 168.542969 187.535156 168.765625 186.027344 168.914062 C 184.523438 169.0625 183.015625 169.136719 181.5 169.136719 C 179.988281 169.136719 178.476562 169.0625 176.972656 168.914062 C 175.46875 168.765625 173.972656 168.542969 172.488281 168.246094 C 171.003906 167.953125 169.539062 167.585938 168.089844 167.144531 C 166.640625 166.707031 165.21875 166.195312 163.820312 165.617188 C 162.421875 165.039062 161.058594 164.390625 159.722656 163.675781 C 158.390625 162.964844 157.09375 162.1875 155.835938 161.34375 C 154.578125 160.503906 153.363281 159.601562 152.191406 158.644531 C 151.023438 157.683594 149.902344 156.667969 148.832031 155.597656 C 147.765625 154.527344 146.75 153.40625 145.789062 152.234375 C 144.828125 151.066406 143.929688 149.851562 143.089844 148.59375 C 142.246094 147.332031 141.472656 146.035156 140.757812 144.699219 C 140.042969 143.367188 139.398438 142 138.820312 140.601562 C 138.242188 139.203125 137.730469 137.777344 137.292969 136.328125 C 136.851562 134.878906 136.484375 133.414062 136.191406 131.929688 C 135.894531 130.445312 135.671875 128.949219 135.523438 127.441406 C 135.375 125.933594 135.304688 124.425781 135.304688 122.910156 C 135.304688 121.398438 135.375 119.886719 135.523438 118.378906 C 135.671875 116.875 135.894531 115.378906 136.191406 113.894531 C 136.484375 112.410156 136.851562 110.941406 137.292969 109.492188 C 137.730469 108.042969 138.242188 106.621094 138.820312 105.222656 C 139.398438 103.824219 140.042969 102.457031 140.757812 101.121094 C 141.472656 99.785156 142.246094 98.488281 143.089844 97.230469 C 143.929688 95.972656 144.828125 94.757812 145.789062 93.585938 C 146.75 92.417969 147.765625 91.296875 148.832031 90.226562 C 149.902344 89.15625 151.023438 88.140625 152.191406 87.179688 C 153.363281 86.21875 154.578125 85.320312 155.835938 84.476562 C 157.09375 83.636719 158.390625 82.859375 159.722656 82.144531 C 161.058594 81.429688 162.421875 80.785156 163.820312 80.207031 C 165.21875 79.625 166.640625 79.117188 168.089844 78.675781 C 169.539062 78.238281 171.003906 77.871094 172.488281 77.574219 C 173.972656 77.28125 175.46875 77.058594 176.972656 76.910156 C 178.476562 76.761719 179.988281 76.6875 181.5 76.6875 C 183.015625 76.6875 184.523438 76.761719 186.027344 76.910156 C 187.535156 77.058594 189.03125 77.28125 190.511719 77.574219 C 191.996094 77.871094 193.464844 78.238281 194.910156 78.675781 C 196.359375 79.117188 197.78125 79.625 199.179688 80.207031 C 200.578125 80.785156 201.945312 81.429688 203.277344 82.144531 C 204.613281 82.859375 205.910156 83.636719 207.167969 84.476562 C 208.425781 85.320312 209.640625 86.21875 210.808594 87.179688 C 211.976562 88.140625 213.097656 89.15625 214.167969 90.226562 C 215.238281 91.296875 216.253906 92.417969 217.210938 93.585938 C 218.171875 94.757812 219.070312 95.972656 219.914062 97.230469 C 220.753906 98.488281 221.53125 99.785156 222.242188 101.121094 C 222.957031 102.457031 223.601562 103.824219 224.183594 105.222656 C 224.761719 106.621094 225.269531 108.042969 225.710938 109.492188 C 226.148438 110.941406 226.515625 112.410156 226.8125 113.894531 C 227.105469 115.378906 227.328125 116.875 227.476562 118.378906 C 227.625 119.886719 227.699219 121.398438 227.699219 122.910156 Z M 227.699219 122.910156 " fill-opacity="0.65" fill-rule="nonzero"/></g><path fill="#6eb1c1" d="M 71.707031 104.660156 C 102.902344 106.59375 126.660156 133.503906 124.726562 164.71875 C 122.796875 195.933594 95.898438 219.707031 64.703125 217.773438 C 33.503906 215.839844 9.746094 188.925781 11.679688 157.710938 C 13.613281 126.496094 40.507812 102.726562 71.707031 104.660156 Z M 169.0625 24.875 C 181.589844 25.652344 191.136719 36.460938 190.359375 49 C 189.582031 61.535156 178.777344 71.082031 166.25 70.304688 C 153.71875 69.53125 144.175781 58.71875 144.953125 46.183594 C 145.726562 33.648438 156.535156 24.097656 169.0625 24.875 Z M 169.0625 24.875 " fill-opacity="0.65" fill-rule="evenodd"/><g clip-path="url(#1415de075d)"><path fill="#cfebe1" d="M 141.230469 70.75 C 141.230469 71.90625 141.203125 73.0625 141.144531 74.214844 C 141.089844 75.371094 141.003906 76.523438 140.890625 77.671875 C 140.777344 78.820312 140.636719 79.96875 140.464844 81.113281 C 140.296875 82.253906 140.097656 83.394531 139.875 84.527344 C 139.648438 85.660156 139.394531 86.789062 139.113281 87.910156 C 138.832031 89.03125 138.527344 90.144531 138.191406 91.25 C 137.855469 92.355469 137.492188 93.453125 137.105469 94.542969 C 136.714844 95.628906 136.300781 96.707031 135.855469 97.773438 C 135.414062 98.84375 134.945312 99.898438 134.453125 100.945312 C 133.960938 101.988281 133.441406 103.019531 132.894531 104.039062 C 132.351562 105.058594 131.78125 106.066406 131.1875 107.054688 C 130.59375 108.046875 129.976562 109.023438 129.335938 109.984375 C 128.691406 110.945312 128.027344 111.890625 127.339844 112.816406 C 126.652344 113.746094 125.941406 114.65625 125.207031 115.550781 C 124.476562 116.445312 123.722656 117.320312 122.945312 118.175781 C 122.171875 119.03125 121.375 119.867188 120.558594 120.6875 C 119.742188 121.503906 118.902344 122.300781 118.046875 123.074219 C 117.191406 123.851562 116.316406 124.605469 115.425781 125.339844 C 114.53125 126.074219 113.621094 126.785156 112.695312 127.472656 C 111.765625 128.160156 110.820312 128.828125 109.863281 129.46875 C 108.902344 130.109375 107.925781 130.730469 106.933594 131.324219 C 105.945312 131.917969 104.941406 132.488281 103.921875 133.03125 C 102.902344 133.574219 101.871094 134.09375 100.828125 134.589844 C 99.78125 135.082031 98.726562 135.550781 97.660156 135.996094 C 96.59375 136.4375 95.515625 136.851562 94.425781 137.242188 C 93.339844 137.632812 92.242188 137.992188 91.136719 138.328125 C 90.03125 138.664062 88.917969 138.972656 87.800781 139.253906 C 86.679688 139.535156 85.550781 139.789062 84.417969 140.011719 C 83.285156 140.238281 82.148438 140.4375 81.007812 140.605469 C 79.863281 140.773438 78.71875 140.917969 77.566406 141.03125 C 76.417969 141.144531 75.265625 141.226562 74.113281 141.285156 C 72.960938 141.339844 71.804688 141.371094 70.648438 141.371094 C 69.496094 141.371094 68.339844 141.339844 67.1875 141.285156 C 66.03125 141.226562 64.882812 141.144531 63.730469 141.03125 C 62.582031 140.917969 61.4375 140.773438 60.292969 140.605469 C 59.152344 140.4375 58.011719 140.238281 56.878906 140.011719 C 55.746094 139.789062 54.621094 139.535156 53.5 139.253906 C 52.378906 138.972656 51.265625 138.664062 50.160156 138.328125 C 49.054688 137.992188 47.960938 137.632812 46.871094 137.242188 C 45.785156 136.851562 44.707031 136.4375 43.640625 135.996094 C 42.574219 135.550781 41.515625 135.082031 40.472656 134.589844 C 39.429688 134.09375 38.398438 133.574219 37.378906 133.03125 C 36.359375 132.488281 35.355469 131.917969 34.363281 131.324219 C 33.375 130.730469 32.398438 130.109375 31.4375 129.46875 C 30.476562 128.828125 29.53125 128.160156 28.605469 127.472656 C 27.675781 126.785156 26.765625 126.074219 25.875 125.339844 C 24.980469 124.605469 24.105469 123.851562 23.25 123.074219 C 22.394531 122.300781 21.558594 121.503906 20.742188 120.6875 C 19.925781 119.867188 19.128906 119.03125 18.351562 118.175781 C 17.578125 117.320312 16.824219 116.445312 16.089844 115.550781 C 15.359375 114.65625 14.648438 113.746094 13.960938 112.816406 C 13.269531 111.890625 12.605469 110.945312 11.964844 109.984375 C 11.324219 109.023438 10.703125 108.046875 10.109375 107.054688 C 9.515625 106.066406 8.949219 105.058594 8.402344 104.039062 C 7.859375 103.019531 7.339844 101.988281 6.847656 100.945312 C 6.351562 99.898438 5.882812 98.84375 5.441406 97.773438 C 5 96.707031 4.585938 95.628906 4.195312 94.542969 C 3.804688 93.453125 3.445312 92.355469 3.109375 91.25 C 2.773438 90.144531 2.464844 89.03125 2.183594 87.910156 C 1.902344 86.789062 1.652344 85.660156 1.425781 84.527344 C 1.199219 83.394531 1.003906 82.253906 0.832031 81.113281 C 0.664062 79.96875 0.523438 78.820312 0.410156 77.671875 C 0.296875 76.523438 0.210938 75.371094 0.15625 74.214844 C 0.0976562 73.0625 0.0703125 71.90625 0.0703125 70.75 C 0.0703125 69.59375 0.0976562 68.4375 0.15625 67.285156 C 0.210938 66.128906 0.296875 64.976562 0.410156 63.828125 C 0.523438 62.679688 0.664062 61.53125 0.832031 60.386719 C 1.003906 59.246094 1.199219 58.105469 1.425781 56.972656 C 1.652344 55.839844 1.902344 54.710938 2.183594 53.589844 C 2.464844 52.46875 2.773438 51.355469 3.109375 50.25 C 3.445312 49.144531 3.804688 48.046875 4.195312 46.957031 C 4.585938 45.871094 5 44.792969 5.441406 43.726562 C 5.882812 42.65625 6.351562 41.601562 6.847656 40.554688 C 7.339844 39.511719 7.859375 38.480469 8.402344 37.460938 C 8.949219 36.441406 9.515625 35.433594 10.109375 34.445312 C 10.703125 33.453125 11.324219 32.476562 11.964844 31.515625 C 12.605469 30.554688 13.269531 29.609375 13.960938 28.683594 C 14.648438 27.753906 15.359375 26.84375 16.089844 25.949219 C 16.824219 25.054688 17.578125 24.179688 18.351562 23.324219 C 19.128906 22.46875 19.925781 21.632812 20.742188 20.8125 C 21.558594 19.996094 22.394531 19.199219 23.25 18.425781 C 24.105469 17.648438 24.980469 16.894531 25.875 16.160156 C 26.765625 15.425781 27.675781 14.714844 28.605469 14.027344 C 29.53125 13.339844 30.476562 12.671875 31.4375 12.03125 C 32.398438 11.390625 33.375 10.769531 34.363281 10.175781 C 35.355469 9.582031 36.359375 9.011719 37.378906 8.46875 C 38.398438 7.925781 39.429688 7.40625 40.472656 6.910156 C 41.515625 6.417969 42.574219 5.949219 43.640625 5.503906 C 44.707031 5.0625 45.785156 4.648438 46.871094 4.257812 C 47.960938 3.867188 49.054688 3.507812 50.160156 3.171875 C 51.265625 2.835938 52.378906 2.527344 53.5 2.246094 C 54.621094 1.964844 55.746094 1.710938 56.878906 1.488281 C 58.011719 1.261719 59.152344 1.0625 60.292969 0.894531 C 61.4375 0.726562 62.582031 0.582031 63.730469 0.46875 C 64.882812 0.355469 66.03125 0.273438 67.1875 0.214844 C 68.339844 0.160156 69.496094 0.128906 70.648438 0.128906 C 71.804688 0.128906 72.960938 0.160156 74.113281 0.214844 C 75.265625 0.273438 76.417969 0.355469 77.566406 0.46875 C 78.71875 0.582031 79.863281 0.726562 81.007812 0.894531 C 82.148438 1.0625 83.285156 1.261719 84.417969 1.488281 C 85.550781 1.710938 86.679688 1.964844 87.800781 2.246094 C 88.917969 2.527344 90.03125 2.835938 91.136719 3.171875 C 92.242188 3.507812 93.339844 3.867188 94.425781 4.257812 C 95.515625 4.648438 96.59375 5.0625 97.660156 5.503906 C 98.726562 5.949219 99.78125 6.417969 100.828125 6.910156 C 101.871094 7.40625 102.902344 7.925781 103.921875 8.46875 C 104.941406 9.011719 105.945312 9.582031 106.933594 10.175781 C 107.925781 10.769531 108.902344 11.390625 109.863281 12.03125 C 110.820312 12.671875 111.765625 13.339844 112.695312 14.027344 C 113.621094 14.714844 114.53125 15.425781 115.425781 16.160156 C 116.316406 16.894531 117.191406 17.648438 118.046875 18.425781 C 118.902344 19.199219 119.742188 19.996094 120.558594 20.8125 C 121.375 21.632812 122.171875 22.46875 122.945312 23.324219 C 123.722656 24.179688 124.476562 25.054688 125.207031 25.949219 C 125.941406 26.84375 126.652344 27.753906 127.339844 28.683594 C 128.027344 29.609375 128.691406 30.554688 129.335938 31.515625 C 129.976562 32.476562 130.59375 33.453125 131.1875 34.445312 C 131.78125 35.433594 132.351562 36.441406 132.894531 37.460938 C 133.441406 38.480469 133.960938 39.511719 134.453125 40.554688 C 134.945312 41.601562 135.414062 42.65625 135.855469 43.726562 C 136.300781 44.792969 136.714844 45.871094 137.105469 46.957031 C 137.492188 48.046875 137.855469 49.144531 138.191406 50.25 C 138.527344 51.355469 138.832031 52.46875 139.113281 53.589844 C 139.394531 54.710938 139.648438 55.839844 139.875 56.972656 C 140.097656 58.105469 140.296875 59.246094 140.464844 60.386719 C 140.636719 61.53125 140.777344 62.679688 140.890625 63.828125 C 141.003906 64.976562 141.089844 66.128906 141.144531 67.285156 C 141.203125 68.4375 141.230469 69.59375 141.230469 70.75 Z M 141.230469 70.75 " fill-opacity="0.65" fill-rule="nonzero"/></g><path fill="#b5dbe0" d="M 157.304688 116.445312 C 157.304688 117.75 157.242188 119.046875 157.113281 120.34375 C 156.988281 121.640625 156.796875 122.925781 156.542969 124.203125 C 156.289062 125.480469 155.972656 126.742188 155.59375 127.988281 C 155.214844 129.234375 154.777344 130.460938 154.28125 131.664062 C 153.78125 132.867188 153.226562 134.042969 152.613281 135.191406 C 152 136.339844 151.332031 137.453125 150.609375 138.535156 C 149.886719 139.621094 149.109375 140.664062 148.285156 141.671875 C 147.460938 142.675781 146.585938 143.640625 145.667969 144.5625 C 144.746094 145.484375 143.78125 146.355469 142.777344 147.183594 C 141.769531 148.007812 140.726562 148.785156 139.644531 149.507812 C 138.5625 150.230469 137.445312 150.898438 136.300781 151.511719 C 135.152344 152.125 133.976562 152.683594 132.773438 153.179688 C 131.570312 153.679688 130.347656 154.117188 129.101562 154.496094 C 127.855469 154.875 126.59375 155.191406 125.320312 155.445312 C 124.042969 155.699219 122.757812 155.890625 121.460938 156.015625 C 120.167969 156.144531 118.867188 156.207031 117.566406 156.207031 C 116.265625 156.207031 114.964844 156.144531 113.671875 156.015625 C 112.375 155.890625 111.089844 155.699219 109.8125 155.445312 C 108.535156 155.191406 107.277344 154.875 106.03125 154.496094 C 104.785156 154.117188 103.5625 153.679688 102.359375 153.179688 C 101.15625 152.683594 99.980469 152.125 98.832031 151.511719 C 97.683594 150.898438 96.570312 150.230469 95.488281 149.507812 C 94.40625 148.785156 93.363281 148.007812 92.355469 147.183594 C 91.351562 146.355469 90.386719 145.484375 89.464844 144.5625 C 88.546875 143.640625 87.671875 142.675781 86.847656 141.671875 C 86.023438 140.664062 85.246094 139.621094 84.523438 138.535156 C 83.800781 137.453125 83.132812 136.339844 82.519531 135.191406 C 81.90625 134.042969 81.351562 132.867188 80.851562 131.664062 C 80.355469 130.460938 79.914062 129.234375 79.539062 127.988281 C 79.160156 126.742188 78.84375 125.480469 78.589844 124.203125 C 78.335938 122.925781 78.144531 121.640625 78.019531 120.34375 C 77.890625 119.046875 77.828125 117.75 77.828125 116.445312 C 77.828125 115.144531 77.890625 113.84375 78.019531 112.546875 C 78.144531 111.253906 78.335938 109.964844 78.589844 108.6875 C 78.84375 107.410156 79.160156 106.148438 79.539062 104.902344 C 79.914062 103.65625 80.355469 102.433594 80.851562 101.230469 C 81.351562 100.027344 81.90625 98.851562 82.519531 97.703125 C 83.132812 96.554688 83.800781 95.4375 84.523438 94.355469 C 85.246094 93.273438 86.023438 92.226562 86.847656 91.222656 C 87.671875 90.214844 88.546875 89.25 89.464844 88.328125 C 90.386719 87.410156 91.351562 86.535156 92.355469 85.710938 C 93.363281 84.882812 94.40625 84.109375 95.488281 83.386719 C 96.570312 82.660156 97.683594 81.992188 98.832031 81.378906 C 99.980469 80.765625 101.15625 80.210938 102.359375 79.710938 C 103.5625 79.210938 104.785156 78.773438 106.03125 78.394531 C 107.277344 78.019531 108.535156 77.703125 109.8125 77.449219 C 111.089844 77.195312 112.375 77.003906 113.671875 76.875 C 114.964844 76.746094 116.265625 76.683594 117.566406 76.683594 C 118.867188 76.683594 120.167969 76.746094 121.460938 76.875 C 122.757812 77.003906 124.042969 77.195312 125.320312 77.449219 C 126.59375 77.703125 127.855469 78.019531 129.101562 78.394531 C 130.347656 78.773438 131.570312 79.210938 132.773438 79.710938 C 133.976562 80.210938 135.152344 80.765625 136.300781 81.378906 C 137.445312 81.992188 138.5625 82.660156 139.644531 83.386719 C 140.726562 84.109375 141.769531 84.882812 142.777344 85.710938 C 143.78125 86.535156 144.746094 87.410156 145.667969 88.328125 C 146.585938 89.25 147.460938 90.214844 148.285156 91.222656 C 149.109375 92.226562 149.886719 93.273438 150.609375 94.355469 C 151.332031 95.4375 152 96.554688 152.613281 97.703125 C 153.226562 98.851562 153.78125 100.027344 154.28125 101.230469 C 154.777344 102.433594 155.214844 103.65625 155.59375 104.902344 C 155.972656 106.148438 156.289062 107.410156 156.542969 108.6875 C 156.796875 109.964844 156.988281 111.253906 157.113281 112.546875 C 157.242188 113.84375 157.304688 115.144531 157.304688 116.445312 Z M 157.304688 116.445312 " fill-opacity="0.65" fill-rule="nonzero"/><g clip-path="url(#109fc3acf6)"><path fill="#97d3c0" d="M 227.699219 122.910156 C 227.699219 124.425781 227.625 125.933594 227.476562 127.441406 C 227.328125 128.949219 227.105469 130.445312 226.8125 131.929688 C 226.515625 133.414062 226.148438 134.878906 225.710938 136.328125 C 225.269531 137.777344 224.761719 139.203125 224.183594 140.601562 C 223.601562 142 222.957031 143.367188 222.242188 144.699219 C 221.53125 146.035156 220.753906 147.332031 219.914062 148.59375 C 219.070312 149.851562 218.171875 151.066406 217.210938 152.234375 C 216.253906 153.40625 215.238281 154.527344 214.167969 155.597656 C 213.097656 156.667969 211.976562 157.683594 210.808594 158.644531 C 209.636719 159.601562 208.425781 160.503906 207.167969 161.34375 C 205.910156 162.1875 204.613281 162.964844 203.277344 163.675781 C 201.945312 164.390625 200.578125 165.039062 199.179688 165.617188 C 197.78125 166.195312 196.359375 166.707031 194.910156 167.144531 C 193.464844 167.585938 191.996094 167.953125 190.511719 168.246094 C 189.03125 168.542969 187.535156 168.765625 186.027344 168.914062 C 184.523438 169.0625 183.015625 169.136719 181.5 169.136719 C 179.988281 169.136719 178.476562 169.0625 176.972656 168.914062 C 175.46875 168.765625 173.972656 168.542969 172.488281 168.246094 C 171.003906 167.953125 169.539062 167.585938 168.089844 167.144531 C 166.640625 166.707031 165.21875 166.195312 163.820312 165.617188 C 162.421875 165.039062 161.058594 164.390625 159.722656 163.675781 C 158.390625 162.964844 157.09375 162.1875 155.835938 161.34375 C 154.578125 160.503906 153.363281 159.601562 152.191406 158.644531 C 151.023438 157.683594 149.902344 156.667969 148.832031 155.597656 C 147.765625 154.527344 146.75 153.40625 145.789062 152.234375 C 144.828125 151.066406 143.929688 149.851562 143.089844 148.59375 C 142.246094 147.332031 141.472656 146.035156 140.757812 144.699219 C 140.042969 143.367188 139.398438 142 138.820312 140.601562 C 138.242188 139.203125 137.730469 137.777344 137.292969 136.328125 C 136.851562 134.878906 136.484375 133.414062 136.191406 131.929688 C 135.894531 130.445312 135.671875 128.949219 135.523438 127.441406 C 135.375 125.933594 135.304688 124.425781 135.304688 122.910156 C 135.304688 121.398438 135.375 119.886719 135.523438 118.378906 C 135.671875 116.875 135.894531 115.378906 136.191406 113.894531 C 136.484375 112.410156 136.851562 110.941406 137.292969 109.492188 C 137.730469 108.042969 138.242188 106.621094 138.820312 105.222656 C 139.398438 103.824219 140.042969 102.457031 140.757812 101.121094 C 141.472656 99.785156 142.246094 98.488281 143.089844 97.230469 C 143.929688 95.972656 144.828125 94.757812 145.789062 93.585938 C 146.75 92.417969 147.765625 91.296875 148.832031 90.226562 C 149.902344 89.15625 151.023438 88.140625 152.191406 87.179688 C 153.363281 86.21875 154.578125 85.320312 155.835938 84.476562 C 157.09375 83.636719 158.390625 82.859375 159.722656 82.144531 C 161.058594 81.429688 162.421875 80.785156 163.820312 80.207031 C 165.21875 79.625 166.640625 79.117188 168.089844 78.675781 C 169.539062 78.238281 171.003906 77.871094 172.488281 77.574219 C 173.972656 77.28125 175.46875 77.058594 176.972656 76.910156 C 178.476562 76.761719 179.988281 76.6875 181.5 76.6875 C 183.015625 76.6875 184.523438 76.761719 186.027344 76.910156 C 187.535156 77.058594 189.03125 77.28125 190.511719 77.574219 C 191.996094 77.871094 193.464844 78.238281 194.910156 78.675781 C 196.359375 79.117188 197.78125 79.625 199.179688 80.207031 C 200.578125 80.785156 201.945312 81.429688 203.277344 82.144531 C 204.613281 82.859375 205.910156 83.636719 207.167969 84.476562 C 208.425781 85.320312 209.640625 86.21875 210.808594 87.179688 C 211.976562 88.140625 213.097656 89.15625 214.167969 90.226562 C 215.238281 91.296875 216.253906 92.417969 217.210938 93.585938 C 218.171875 94.757812 219.070312 95.972656 219.914062 97.230469 C 220.753906 98.488281 221.53125 99.785156 222.242188 101.121094 C 222.957031 102.457031 223.601562 103.824219 224.183594 105.222656 C 224.761719 106.621094 225.269531 108.042969 225.710938 109.492188 C 226.148438 110.941406 226.515625 112.410156 226.8125 113.894531 C 227.105469 115.378906 227.328125 116.875 227.476562 118.378906 C 227.625 119.886719 227.699219 121.398438 227.699219 122.910156 Z M 227.699219 122.910156 " fill-opacity="0.65" fill-rule="nonzero"/></g><path fill="#6eb1c1" d="M 71.707031 104.660156 C 102.902344 106.59375 126.660156 133.503906 124.726562 164.71875 C 122.796875 195.933594 95.898438 219.707031 64.703125 217.773438 C 33.503906 215.839844 9.746094 188.925781 11.679688 157.710938 C 13.613281 126.496094 40.507812 102.726562 71.707031 104.660156 Z M 169.0625 24.875 C 181.589844 25.652344 191.136719 36.460938 190.359375 49 C 189.582031 61.535156 178.777344 71.082031 166.25 70.304688 C 153.71875 69.53125 144.175781 58.71875 144.953125 46.183594 C 145.726562 33.648438 156.535156 24.097656 169.0625 24.875 Z M 169.0625 24.875 " fill-opacity="0.65" fill-rule="evenodd"/></svg>